<?xml version="1.0" encoding="UTF-8" standalone="no"?>
<svg xmlns:i="ns_ai" xmlns:dc="http://purl.org/dc/elements/1.1/" xmlns:cc="http://creativecommons.org/ns#" xmlns:rdf="http://www.w3.org/1999/02/22-rdf-syntax-ns#" xmlns:svg="http://www.w3.org/2000/svg" xmlns="http://www.w3.org/2000/svg" xmlns:xlink="http://www.w3.org/1999/xlink" xmlns:sodipodi="http://sodipodi.sourceforge.net/DTD/sodipodi-0.dtd" xmlns:inkscape="http://www.inkscape.org/namespaces/inkscape" version="1.1" width="190.2113" height="180.9017" viewBox="0 0 1.902113 1.809017" id="svg2" inkscape:version="0.91 r13725" sodipodi:docname="GTW_green.svg">
  <metadata id="metadata21">
    <rdf:RDF>
      <cc:Work rdf:about="">
        <dc:format>image/svg+xml</dc:format>
        <dc:type rdf:resource="http://purl.org/dc/dcmitype/StillImage"/>
        <dc:title>GTW text</dc:title>
      </cc:Work>
    </rdf:RDF>
  </metadata>
  <sodipodi:namedview pagecolor="#ffffff" bordercolor="#666666" borderopacity="1" objecttolerance="10" gridtolerance="10" guidetolerance="10" inkscape:pageopacity="0" inkscape:pageshadow="2" inkscape:window-width="1920" inkscape:window-height="1017" id="starview" showgrid="false" fit-margin-top="0" fit-margin-left="0" fit-margin-right="0" fit-margin-bottom="0" inkscape:zoom="3.8933333" inkscape:cx="72.971412" inkscape:cy="102.69686" inkscape:window-x="-8" inkscape:window-y="-8" inkscape:window-maximized="1" inkscape:current-layer="svg2"/>
  <title id="title">GTW text</title>
  <path style="fill:#ffffff;stroke:#000000;stroke-width:0.01972314;stroke-linecap:square;stroke-linejoin:miter;stroke-miterlimit:10;stroke-dasharray:none;stroke-opacity:1" d="m 0.59269812,1.0382712 -0.0270663,-0.025931 0,-0.0961038 0,-0.0961035 0.0271923,-0.0258116 0.0271923,-0.0258117 0.0525888,0 0.0525888,0 0.0271923,0.0258117 0.0271923,0.0258116 0,0.0185426 0,0.0185426 -0.0341073,0 c -0.0309549,0 -0.0341075,-4.9897e-4 -0.0341075,-0.0054 0,-0.002969 -0.003229,-0.008289 -0.007176,-0.011828 -0.006134,-0.005496 -0.0107801,-0.006429 -0.0320165,-0.006429 -0.0219562,0 -0.0256229,7.946e-4 -0.0315822,0.006841 -0.006525,0.006629 -0.006741,0.009057 -0.006741,0.076365 0,0.0688464 6.965e-5,0.0695835 0.007176,0.0759508 0.006153,0.005509 0.0107724,0.006434 0.032332,0.006434 0.0234829,0 0.025583,-5.1811e-4 0.0315823,-0.007787 0.003535,-0.004284 0.006425,-0.0102725 0.006425,-0.0133064 0,-0.004465 -0.002364,-0.005518 -0.0124027,-0.005518 l -0.0124027,0 0,-0.0325264 0,-0.0325264 0.04651,0 0.0465101,0 -6.502e-5,0.0524856 -6.506e-5,0.0524856 -0.0291387,0.025873 -0.0291387,0.025874 -0.0507034,0 -0.0507033,0 -0.0270662,-0.025931 z m 0.2767995,-0.0893888 0,-0.11532056 -0.0356577,0 -0.0356576,0 0,-0.0325264 0,-0.0325264 0.10697301,0 0.10697337,0 0,0.0325264 0,0.0325264 -0.0372078,0 -0.037208,0 0,0.11532056 0,0.11532084 -0.0341072,0 -0.0341074,0 0,-0.11532084 z M 1.0788453,1.05755 c -0.00142,-0.00592 -0.04811,-0.28527058 -0.04811,-0.28795731 0,-5.9589e-4 0.015254,-0.001084 0.033899,-0.001084 0.029617,0 0.034098,6.5345e-4 0.035472,0.005176 8.655e-4,0.002846 0.00543,0.0295848 0.01019,0.0594193 0.00544,0.0343624 0.00946,0.0522453 0.010981,0.0487895 0.00131,-0.002999 0.00734,-0.0247492 0.01344,-0.0483309 0.00611,-0.0235815 0.012454,-0.0478655 0.014139,-0.0539644 l 0.00305,-0.0110884 0.033648,0 0.033647,0 0.014971,0.0576035 c 0.00823,0.0316818 0.015883,0.0566312 0.016993,0.0554426 0.00112,-0.001187 0.00596,-0.0271098 0.01079,-0.0576035 l 0.00875,-0.0554427 0.035106,0 c 0.034822,0 0.035092,5.378e-5 0.033478,0.006652 -8.965e-4,0.003657 -0.010736,0.0618739 -0.021835,0.12936603 -0.011125,0.0674922 -0.021725,0.13102918 -0.023569,0.14119368 l -0.00334,0.018483 -0.032119,0 -0.03212,0 -0.00306,-0.011091 c -0.00169,-0.0061 -0.010308,-0.039031 -0.019157,-0.0731844 -0.00885,-0.0341525 -0.016971,-0.0630616 -0.018056,-0.0642421 -0.00109,-0.001179 -0.010823,0.0317524 -0.021622,0.0731841 l -0.019647,0.0753308 -0.032147,0 c -0.030794,0 -0.032217,-2.809e-4 -0.033762,-0.00663 z" id="path4193" inkscape:connector-curvature="0"/>
</svg>
