<?xml version="1.0" encoding="UTF-8" standalone="no"?>
<svg xmlns:i="ns_ai" xmlns:dc="http://purl.org/dc/elements/1.1/" xmlns:cc="http://creativecommons.org/ns#" xmlns:rdf="http://www.w3.org/1999/02/22-rdf-syntax-ns#" xmlns:svg="http://www.w3.org/2000/svg" xmlns="http://www.w3.org/2000/svg" xmlns:xlink="http://www.w3.org/1999/xlink" xmlns:sodipodi="http://sodipodi.sourceforge.net/DTD/sodipodi-0.dtd" xmlns:inkscape="http://www.inkscape.org/namespaces/inkscape" version="1.1" width="190.2113" height="180.9017" viewBox="0 0 1.902113 1.809017" id="svg2" inkscape:version="0.91 r13725" sodipodi:docname="GTW_red.svg">
  <metadata id="metadata21">
    <rdf:RDF>
      <cc:Work rdf:about="">
        <dc:format>image/svg+xml</dc:format>
        <dc:type rdf:resource="http://purl.org/dc/dcmitype/StillImage"/>
        <dc:title>GTW ENL logo</dc:title>
      </cc:Work>
    </rdf:RDF>
  </metadata>
  <sodipodi:namedview pagecolor="#ffffff" bordercolor="#666666" borderopacity="1" objecttolerance="10" gridtolerance="10" guidetolerance="10" inkscape:pageopacity="0" inkscape:pageshadow="2" inkscape:window-width="1920" inkscape:window-height="1017" id="starview" showgrid="false" fit-margin-top="0" fit-margin-left="0" fit-margin-right="0" fit-margin-bottom="0" inkscape:zoom="3.8933333" inkscape:cx="72.971412" inkscape:cy="102.69686" inkscape:window-x="-8" inkscape:window-y="-8" inkscape:window-maximized="1" inkscape:current-layer="svg2"/>
  <title id="title">GTW ENL logo</title>
  <g transform="matrix(0,-0.0018078,-0.0018078,0,1.7509516,2.0108449)" i:extraneous="self" id="center">
    <g id="enl" style="fill:#000000" transform="matrix(0.56367534,0,0,-0.92407322,273.34996,871.64886)">
      <g id="top" style="fill:#000000">
        <path inkscape:connector-curvature="0" d="M 412.026,249.433 C 385.229,240.586 356.415,231.77 327.268,227.212 L 326,227.014 326,22.836 455.259,128.5 l -21.474,62.326 -12.928,-8.619 6.51,-38.059 L 364,96.504 l 0.002,110.204 c 15.367,5.52 33.608,14.503 54.238,26.713 l 1.082,0.64 -5.926,15.823 -1.37,-0.451 z" id="path13" style="fill:#000000"/>
      </g>
      <g id="top_side" style="fill:#000000">
        <path inkscape:connector-curvature="0" d="M 547.259,319.694 C 521.27,299.955 465.573,263.621 465.014,263.256 l -1.233,-0.804 49.361,-78.874 115.319,96.328 -1.892,1.066 c -0.379,0.214 -38.354,21.57 -77.8,38.9 l -0.808,0.354 -0.702,-0.532 z m -50.201,-66.341 c 6.387,4.885 37.774,28.895 53.299,40.691 20.159,-9.29 37.283,-17.674 43.059,-20.522 l -70.118,-57.341 -26.24,37.172 z" id="path19" style="fill:#000000"/>
      </g>
      <g id="bottom_side" style="fill:#000000">
        <path inkscape:connector-curvature="0" d="m 461.084,446.792 1.293,-0.638 c 23.485,-11.585 35.604,-19.591 51.868,-34.269 l 0.696,-0.628 79.222,31.998 -76.087,131.541 -56.992,-128.004 z m 67.518,76.103 37.262,-63.102 -38.452,-17.703 c -7.179,8.414 -16.623,16.337 -26.815,22.496 l 28.005,58.309 z" id="path25" style="fill:#000000"/>
      </g>
      <g id="bottom" style="fill:#000000">
        <path inkscape:connector-curvature="0" d="m 337,481.367 1.379,-0.112 c 31.06,-2.52 54.349,-7.132 77.873,-15.419 l 1.516,-0.535 9.984,36.16 -0.992,0.583 c -19.458,11.424 -42.739,13.711 -48.76,14.123 l 0,295.601 73.902,-118.291 -25.613,-115.009 18.924,-10.19 36.151,136.459 L 337,940.573 337,481.367 Z" id="path31" style="fill:#000000"/>
      </g>
      <g id="eye_top" style="fill:#000000">
        <path inkscape:connector-curvature="0" d="M 150.994,388.294 C 124.515,382.132 93.283,360.279 92.97,360.06 l -3.694,-2.602 4.517,-0.124 c 0.239,-0.006 23.64,-0.653 29.452,-1.295 10.493,-5.048 18.498,-9.684 27.755,-15.045 8.949,-5.183 19.092,-11.057 33.812,-18.66 5.521,-2.852 10.892,-5.762 16.086,-8.577 30.659,-16.614 59.617,-32.308 112.953,-32.308 3.638,0 7.408,0.074 11.207,0.219 64.49,2.462 87.303,14.136 118.878,30.293 2.777,1.421 5.624,2.878 8.574,4.366 23.055,11.633 46.696,24.995 68.398,38.657 1.292,-0.039 3.597,-0.059 6.869,-0.059 6.305,0 14.158,0.074 14.236,0.074 l 3.097,0.029 -1.942,2.412 c -0.431,0.535 -10.811,13.227 -32.557,22.929 l -0.547,0.244 -0.565,-0.2 c -9.066,-3.209 -16.979,-6.902 -27.93,-12.014 -11.894,-5.551 -26.694,-12.459 -49.638,-21.845 -42.366,-17.332 -78.68,-20.032 -108.616,-20.388 -2.087,-0.025 -4.3,-0.044 -6.631,-0.044 -24.145,0 -60.47,2.147 -97.005,20.714 -18.042,9.169 -30.882,17.909 -42.211,25.62 -9.087,6.186 -16.936,11.528 -25.474,15.722 l -0.48,0.236 -0.52,-0.12 z" id="path37" style="fill:#000000"/>
      </g>
      <g id="eye_bottom" style="fill:#000000">
        <path inkscape:connector-curvature="0" d="M 330.745,432.5 C 257.888,432.24 207.916,399.579 207.42,399.249 l -1.812,-1.204 1.77,-1.265 c 0.243,-0.174 24.544,-17.511 44.872,-29.246 l 1.026,-0.592 0.814,0.86 c 0.304,0.321 30.81,32.082 70.147,32.082 0.899,0 1.799,-0.016 2.708,-0.05 41.9,-1.543 71.832,-32.879 72.129,-33.195 l 0.729,-0.775 56.285,24.957 -2.01,1.537 c -0.525,0.401 -53.298,40.143 -122.676,40.143 l -0.657,-10e-4 z" id="path43" style="fill:#000000"/>
      </g>
    </g>
  </g>
</svg>
